<svg xmlns="http://www.w3.org/2000/svg" viewBox="0 0 1000 520" style="background-color: #fafaf9; font-family: system-ui, -apple-system, sans-serif;">
  <defs>
    <!-- Gradient defined in the local transformed user space (Y goes from 0.5 to 2.4 upwards) -->
    <linearGradient id="area-gradient" gradientUnits="userSpaceOnUse" x1="0" y1="2.4" x2="0" y2="0.5">
      <stop offset="0%" stop-color="#c2410c" stop-opacity="0.12" />
      <stop offset="100%" stop-color="#c2410c" stop-opacity="0.0" />
    </linearGradient>
  </defs>

  <style>
    .title { font-size: 13px; font-weight: 500; fill: #292524; letter-spacing: -0.01em; }
    .subtitle { font-size: 10px; font-weight: 400; fill: #78716c; }
    .axis-text { font-size: 10px; fill: #a8a29e; letter-spacing: 0.02em; }
    .accent-text { font-size: 9px; font-weight: 500; fill: #c2410c; }
    .grid { stroke: #e7e5e4; stroke-width: 0.5; }
    .grid-baseline { stroke: #a8a29e; stroke-width: 0.75; stroke-dasharray: 2 4; }
    .axis { stroke: #d6d3d1; stroke-width: 0.75; }
  </style>

  <!-- Typography: Header -->
  <text x="100" y="45" class="title">asset trajectory / initial price deviation</text>
  <text x="100" y="62" class="subtitle">weekly structural trend analysis (1998—2003)</text>

  <!-- Gridlines -->
  <line x1="100" y1="90" x2="900" y2="90" class="grid" />         <!-- 2.5 -->
  <line x1="100" y1="177.5" x2="900" y2="177.5" class="grid" />   <!-- 2.0 -->
  <line x1="100" y1="265" x2="900" y2="265" class="grid" />       <!-- 1.5 -->
  <line x1="100" y1="352.5" x2="900" y2="352.5" class="grid-baseline" /> <!-- 1.0 (baseline) -->
  <line x1="100" y1="440" x2="900" y2="440" class="axis" />       <!-- 0.5 (bottom bound) -->

  <!-- Y-Axis Labels -->
  <text x="85" y="93" class="axis-text" text-anchor="end">2.5</text>
  <text x="85" y="180.5" class="axis-text" text-anchor="end">2.0</text>
  <text x="85" y="268" class="axis-text" text-anchor="end">1.5</text>
  <text x="85" y="355.5" class="axis-text" text-anchor="end">1.0</text>
  <text x="85" y="443" class="axis-text" text-anchor="end">0.5</text>

  <text x="100" y="347" class="axis-text" font-size="8px" fill="#a8a29e">baseline (1.00)</text>

  <!-- X-Axis Labels and Ticks -->
  <!-- Mapped relative to ~1854 days over 800px width -->
  <g class="axis">
    <line x1="100" y1="440" x2="100" y2="445" />
    <line x1="257" y1="440" x2="257" y2="445" />
    <line x1="415" y1="440" x2="415" y2="445" />
    <line x1="573" y1="440" x2="573" y2="445" />
    <line x1="730" y1="440" x2="730" y2="445" />
    <line x1="888" y1="440" x2="888" y2="445" />
  </g>

  <text x="100" y="460" class="axis-text" text-anchor="middle">1998</text>
  <text x="257" y="460" class="axis-text" text-anchor="middle">1999</text>
  <text x="415" y="460" class="axis-text" text-anchor="middle">2000</text>
  <text x="573" y="460" class="axis-text" text-anchor="middle">2001</text>
  <text x="730" y="460" class="axis-text" text-anchor="middle">2002</text>
  <text x="888" y="460" class="axis-text" text-anchor="middle">2003</text>

  <!-- Chart Data Container 
       Mapping:
       Y base = 527.5 (so 527.5 - 0.5 * 175 = 440 target bottom line)
       Y scale = -175 (2.0 range maps to 350px)
       X base = 100
       X scale = 3.030303 (264 intervals map to 800px)
  -->
  <g transform="translate(100, 527.5) scale(3.030303, -175)">
    <!-- Shaded Area Under Line -->
    <path fill="url(#area-gradient)" d="M 0 0.5 
      L 0 1.0058 L 1 0.9739 L 2 1.0156 L 3 1.0919 L 4 1.1039 L 5 1.0890 L 6 1.0515 L 7 1.0992 L 8 1.0761 L 9 1.0997 L 10 1.1094 
      L 11 1.0755 L 12 1.0961 L 13 1.1304 L 14 1.1162 L 15 1.0879 L 16 1.0545 L 17 1.0484 L 18 1.0333 L 19 1.0401 L 20 0.9691 
      L 21 1.0858 L 22 1.0496 L 23 0.9872 L 24 1.0273 L 25 1.0344 L 26 1.0545 L 27 1.0727 L 28 1.0770 L 29 1.0109 L 30 1.0590 
      L 31 1.0690 L 32 1.0509 L 33 0.8881 L 34 0.9836 L 35 1.0377 L 36 1.0264 L 37 1.0741 L 38 0.8594 L 39 0.8219 L 40 0.9456 
      L 41 1.0107 L 42 1.1210 L 43 1.0983 L 44 1.0989 L 45 1.0976 L 46 1.1099 L 47 1.0808 L 48 1.0974 L 49 1.1761 L 50 1.1613 
      L 51 1.1312 L 52 1.0616 L 53 1.2001 L 54 1.2273 L 55 1.2333 L 56 1.2685 L 57 1.2460 L 58 1.1634 L 59 1.2998 L 60 1.3092 
      L 61 1.1421 L 62 1.2051 L 63 1.1890 L 64 1.0680 L 65 1.1899 L 66 1.2161 L 67 1.2548 L 68 1.3282 L 69 1.3360 L 70 1.1953 
      L 71 1.2740 L 72 1.2589 L 73 1.2943 L 74 1.3717 L 75 1.4185 L 76 1.5282 L 77 1.5309 L 78 1.5221 L 79 1.5229 L 80 1.5202 
      L 81 1.6195 L 82 1.6177 L 83 1.6060 L 84 1.6029 L 85 1.6008 L 86 1.6340 L 87 1.6590 L 88 1.6480 L 89 1.6254 L 90 1.5840 
      L 91 1.6196 L 92 1.7482 L 93 1.7429 L 94 1.7592 L 95 1.8348 L 96 1.8461 L 97 1.7482 L 98 1.7930 L 99 1.7879 L 100 1.8237 
      L 101 1.9064 L 102 1.8405 L 103 1.9300 L 104 1.9409 L 105 2.0015 L 106 2.0109 L 107 1.9239 L 108 1.8782 L 109 1.8327 L 110 1.6584 
      L 111 1.8906 L 112 1.8688 L 113 1.8388 L 114 1.7879 L 115 1.6259 L 116 1.8270 L 117 1.8127 L 118 1.7630 L 119 1.8488 L 120 1.8000 
      L 121 1.9000 L 122 1.9380 L 123 1.9231 L 124 1.8876 L 125 1.9124 L 126 1.8918 L 127 1.8385 L 128 1.8495 L 129 1.9197 L 130 1.8482 
      L 131 1.8066 L 132 1.8164 L 133 1.8634 L 134 1.8946 L 135 1.8665 L 136 1.8558 L 137 1.8678 L 138 1.7811 L 139 1.5706 L 140 1.5866 
      L 141 1.8241 L 142 1.8436 L 143 1.7669 L 144 1.8037 L 145 1.6418 L 146 1.6607 L 147 1.5186 L 148 1.5966 L 149 1.5114 L 150 1.5012 
      L 151 1.5451 L 152 1.7317 L 153 1.7382 L 154 1.8628 L 155 1.8604 L 156 1.7977 L 157 1.7358 L 158 1.6265 L 159 1.6264 L 160 1.6918 
      L 161 1.7151 L 162 1.6702 L 163 1.7324 L 164 1.8020 L 165 1.9182 L 166 1.9729 L 167 1.9485 L 168 2.0563 L 169 1.9886 L 170 1.9338 
      L 171 1.9381 L 172 1.9301 L 173 1.9088 L 174 1.7367 L 175 1.8290 L 176 1.8092 L 177 1.7144 L 178 1.7726 L 179 1.7849 L 180 1.8934 
      L 181 1.9467 L 182 1.8726 L 183 1.7445 L 184 1.7509 L 185 1.6710 L 186 1.4721 L 187 1.4095 L 188 1.5118 L 189 1.6540 L 190 1.6629 
      L 191 1.7011 L 192 1.6972 L 193 1.7483 L 194 1.7419 L 195 1.7287 L 196 1.7103 L 197 1.6698 L 198 1.5680 L 199 1.6539 L 200 1.6228 
      L 201 1.6039 L 202 1.5743 L 203 1.4958 L 204 1.4778 L 205 1.4817 L 206 1.5473 L 207 1.5141 L 208 1.5421 L 209 1.6351 L 210 1.6353 
      L 211 1.5611 L 212 1.6145 L 213 1.6388 L 214 1.6884 L 215 1.6354 L 216 1.6496 L 217 1.6667 L 218 1.7538 L 219 1.8078 L 220 1.8615 
      L 221 1.8416 L 222 1.7594 L 223 1.6924 L 224 1.6568 L 225 1.7214 L 226 1.8219 L 227 1.8016 L 228 1.7467 L 229 1.8154 L 230 1.9265 
      L 231 1.9421 L 232 1.9799 L 233 2.0180 L 234 1.9684 L 235 1.9740 L 236 1.9987 L 237 1.9348 L 238 2.0426 L 239 1.9309 L 240 2.1448 
      L 241 2.3340 L 242 2.3083 L 243 2.3460 L 244 2.2920 L 245 2.2684 L 246 2.2226 L 247 2.2335 L 248 2.1329 L 249 2.1661 L 250 2.1752 
      L 251 2.2086 L 252 2.1919 L 253 2.1369 L 254 2.0877 L 255 2.0687 
      L 255 0.5 Z" />
      
    <!-- Primary Line Path -->
    <path fill="none" stroke="#c2410c" stroke-width="1.25" stroke-linejoin="round" vector-effect="non-scaling-stroke" d="M 0 1.0058 
      L 1 0.9739 L 2 1.0156 L 3 1.0919 L 4 1.1039 L 5 1.0890 L 6 1.0515 L 7 1.0992 L 8 1.0761 L 9 1.0997 L 10 1.1094 
      L 11 1.0755 L 12 1.0961 L 13 1.1304 L 14 1.1162 L 15 1.0879 L 16 1.0545 L 17 1.0484 L 18 1.0333 L 19 1.0401 L 20 0.9691 
      L 21 1.0858 L 22 1.0496 L 23 0.9872 L 24 1.0273 L 25 1.0344 L 26 1.0545 L 27 1.0727 L 28 1.0770 L 29 1.0109 L 30 1.0590 
      L 31 1.0690 L 32 1.0509 L 33 0.8881 L 34 0.9836 L 35 1.0377 L 36 1.0264 L 37 1.0741 L 38 0.8594 L 39 0.8219 L 40 0.9456 
      L 41 1.0107 L 42 1.1210 L 43 1.0983 L 44 1.0989 L 45 1.0976 L 46 1.1099 L 47 1.0808 L 48 1.0974 L 49 1.1761 L 50 1.1613 
      L 51 1.1312 L 52 1.0616 L 53 1.2001 L 54 1.2273 L 55 1.2333 L 56 1.2685 L 57 1.2460 L 58 1.1634 L 59 1.2998 L 60 1.3092 
      L 61 1.1421 L 62 1.2051 L 63 1.1890 L 64 1.0680 L 65 1.1899 L 66 1.2161 L 67 1.2548 L 68 1.3282 L 69 1.3360 L 70 1.1953 
      L 71 1.2740 L 72 1.2589 L 73 1.2943 L 74 1.3717 L 75 1.4185 L 76 1.5282 L 77 1.5309 L 78 1.5221 L 79 1.5229 L 80 1.5202 
      L 81 1.6195 L 82 1.6177 L 83 1.6060 L 84 1.6029 L 85 1.6008 L 86 1.6340 L 87 1.6590 L 88 1.6480 L 89 1.6254 L 90 1.5840 
      L 91 1.6196 L 92 1.7482 L 93 1.7429 L 94 1.7592 L 95 1.8348 L 96 1.8461 L 97 1.7482 L 98 1.7930 L 99 1.7879 L 100 1.8237 
      L 101 1.9064 L 102 1.8405 L 103 1.9300 L 104 1.9409 L 105 2.0015 L 106 2.0109 L 107 1.9239 L 108 1.8782 L 109 1.8327 L 110 1.6584 
      L 111 1.8906 L 112 1.8688 L 113 1.8388 L 114 1.7879 L 115 1.6259 L 116 1.8270 L 117 1.8127 L 118 1.7630 L 119 1.8488 L 120 1.8000 
      L 121 1.9000 L 122 1.9380 L 123 1.9231 L 124 1.8876 L 125 1.9124 L 126 1.8918 L 127 1.8385 L 128 1.8495 L 129 1.9197 L 130 1.8482 
      L 131 1.8066 L 132 1.8164 L 133 1.8634 L 134 1.8946 L 135 1.8665 L 136 1.8558 L 137 1.8678 L 138 1.7811 L 139 1.5706 L 140 1.5866 
      L 141 1.8241 L 142 1.8436 L 143 1.7669 L 144 1.8037 L 145 1.6418 L 146 1.6607 L 147 1.5186 L 148 1.5966 L 149 1.5114 L 150 1.5012 
      L 151 1.5451 L 152 1.7317 L 153 1.7382 L 154 1.8628 L 155 1.8604 L 156 1.7977 L 157 1.7358 L 158 1.6265 L 159 1.6264 L 160 1.6918 
      L 161 1.7151 L 162 1.6702 L 163 1.7324 L 164 1.8020 L 165 1.9182 L 166 1.9729 L 167 1.9485 L 168 2.0563 L 169 1.9886 L 170 1.9338 
      L 171 1.9381 L 172 1.9301 L 173 1.9088 L 174 1.7367 L 175 1.8290 L 176 1.8092 L 177 1.7144 L 178 1.7726 L 179 1.7849 L 180 1.8934 
      L 181 1.9467 L 182 1.8726 L 183 1.7445 L 184 1.7509 L 185 1.6710 L 186 1.4721 L 187 1.4095 L 188 1.5118 L 189 1.6540 L 190 1.6629 
      L 191 1.7011 L 192 1.6972 L 193 1.7483 L 194 1.7419 L 195 1.7287 L 196 1.7103 L 197 1.6698 L 198 1.5680 L 199 1.6539 L 200 1.6228 
      L 201 1.6039 L 202 1.5743 L 203 1.4958 L 204 1.4778 L 205 1.4817 L 206 1.5473 L 207 1.5141 L 208 1.5421 L 209 1.6351 L 210 1.6353 
      L 211 1.5611 L 212 1.6145 L 213 1.6388 L 214 1.6884 L 215 1.6354 L 216 1.6496 L 217 1.6667 L 218 1.7538 L 219 1.8078 L 220 1.8615 
      L 221 1.8416 L 222 1.7594 L 223 1.6924 L 224 1.6568 L 225 1.7214 L 226 1.8219 L 227 1.8016 L 228 1.7467 L 229 1.8154 L 230 1.9265 
      L 231 1.9421 L 232 1.9799 L 233 2.0180 L 234 1.9684 L 235 1.9740 L 236 1.9987 L 237 1.9348 L 238 2.0426 L 239 1.9309 L 240 2.1448 
      L 241 2.3340 L 242 2.3083 L 243 2.3460 L 244 2.2920 L 245 2.2684 L 246 2.2226 L 247 2.2335 L 248 2.1329 L 249 2.1661 L 250 2.1752 
      L 251 2.2086 L 252 2.1919 L 253 2.1369 L 254 2.0877 L 255 2.0687" />
  </g>

  <!-- Annotations -->
  <!-- Minimum Point Annotation (Index 39: x = 100 + 39*3.0303 = 218.2, y = 527.5 - 0.8219*175 = 383.7) -->
  <g>
    <line x1="218.2" y1="383.7" x2="218.2" y2="405" stroke="#c2410c" stroke-width="0.75" />
    <circle cx="218.2" cy="383.7" r="2.5" fill="#fafaf9" stroke="#c2410c" stroke-width="1.25" />
    <text x="218.2" y="415" class="accent-text" text-anchor="middle">min dev 0.82</text>
  </g>

  <!-- Maximum Point Annotation (Index 243: x = 100 + 243*3.0303 = 836.4, y = 527.5 - 2.3460*175 = 116.9) -->
  <g>
    <line x1="836.4" y1="116.9" x2="836.4" y2="92" stroke="#c2410c" stroke-width="0.75" />
    <circle cx="836.4" cy="116.9" r="2.5" fill="#fafaf9" stroke="#c2410c" stroke-width="1.25" />
    <text x="836.4" y="86" class="accent-text" text-anchor="middle">max dev 2.34</text>
  </g>

</svg>