<svg xmlns="http://www.w3.org/2000/svg" width="1200" height="380" viewBox="0 0 1200 380">
<rect width="100%" height="100%" fill="white"/>
<text x="600" y="28" text-anchor="middle" font-size="18" font-weight="bold" fill="#111">Exact arithmetic probe of decomposition tax and delayed commitment</text>
<line x1="70.00" y1="295.00" x2="390.00" y2="295.00" stroke="#dddddd" stroke-width="1"/>
<text x="58.00" y="299.00" text-anchor="end" font-size="12" fill="#333">0.00</text>
<line x1="70.00" y1="235.00" x2="390.00" y2="235.00" stroke="#dddddd" stroke-width="1"/>
<text x="58.00" y="239.00" text-anchor="end" font-size="12" fill="#333">0.25</text>
<line x1="70.00" y1="175.00" x2="390.00" y2="175.00" stroke="#dddddd" stroke-width="1"/>
<text x="58.00" y="179.00" text-anchor="end" font-size="12" fill="#333">0.50</text>
<line x1="70.00" y1="115.00" x2="390.00" y2="115.00" stroke="#dddddd" stroke-width="1"/>
<text x="58.00" y="119.00" text-anchor="end" font-size="12" fill="#333">0.75</text>
<line x1="70.00" y1="55.00" x2="390.00" y2="55.00" stroke="#dddddd" stroke-width="1"/>
<text x="58.00" y="59.00" text-anchor="end" font-size="12" fill="#333">1.00</text>
<line x1="70.00" y1="295.00" x2="70.00" y2="301.00" stroke="#333" stroke-width="1.2"/>
<text x="70.00" y="317.00" text-anchor="middle" font-size="12" fill="#333">0</text>
<line x1="115.71" y1="295.00" x2="115.71" y2="301.00" stroke="#333" stroke-width="1.2"/>
<text x="115.71" y="317.00" text-anchor="middle" font-size="12" fill="#333">5</text>
<line x1="161.43" y1="295.00" x2="161.43" y2="301.00" stroke="#333" stroke-width="1.2"/>
<text x="161.43" y="317.00" text-anchor="middle" font-size="12" fill="#333">10</text>
<line x1="207.14" y1="295.00" x2="207.14" y2="301.00" stroke="#333" stroke-width="1.2"/>
<text x="207.14" y="317.00" text-anchor="middle" font-size="12" fill="#333">15</text>
<line x1="252.86" y1="295.00" x2="252.86" y2="301.00" stroke="#333" stroke-width="1.2"/>
<text x="252.86" y="317.00" text-anchor="middle" font-size="12" fill="#333">20</text>
<line x1="298.57" y1="295.00" x2="298.57" y2="301.00" stroke="#333" stroke-width="1.2"/>
<text x="298.57" y="317.00" text-anchor="middle" font-size="12" fill="#333">25</text>
<line x1="344.29" y1="295.00" x2="344.29" y2="301.00" stroke="#333" stroke-width="1.2"/>
<text x="344.29" y="317.00" text-anchor="middle" font-size="12" fill="#333">30</text>
<line x1="390.00" y1="295.00" x2="390.00" y2="301.00" stroke="#333" stroke-width="1.2"/>
<text x="390.00" y="317.00" text-anchor="middle" font-size="12" fill="#333">35</text>
<line x1="70.00" y1="295.00" x2="390.00" y2="295.00" stroke="#333" stroke-width="1.5"/>
<line x1="70.00" y1="55.00" x2="70.00" y2="295.00" stroke="#333" stroke-width="1.5"/>
<text x="230.00" y="37.00" text-anchor="middle" font-size="16" font-weight="bold" fill="#111">A. Two-digit products</text>
<text x="230.00" y="341.00" text-anchor="middle" font-size="14" fill="#111">Decomposition tax lambda</text>
<text x="22.00" y="175.00" text-anchor="middle" font-size="14" fill="#111" transform="rotate(-90 22.00,175.00)">Accuracy</text>
<polyline fill="none" stroke="#0072B2" stroke-width="2.4" points="70.00,115.00 115.71,115.00 161.43,115.00 207.14,115.00 252.86,85.00 298.57,115.00 344.29,85.00 390.00,85.00"/>
<circle cx="70.00" cy="115.00" r="3.4" fill="#0072B2"/>
<circle cx="115.71" cy="115.00" r="3.4" fill="#0072B2"/>
<circle cx="161.43" cy="115.00" r="3.4" fill="#0072B2"/>
<circle cx="207.14" cy="115.00" r="3.4" fill="#0072B2"/>
<circle cx="252.86" cy="85.00" r="3.4" fill="#0072B2"/>
<circle cx="298.57" cy="115.00" r="3.4" fill="#0072B2"/>
<circle cx="344.29" cy="85.00" r="3.4" fill="#0072B2"/>
<circle cx="390.00" cy="85.00" r="3.4" fill="#0072B2"/>
<polyline fill="none" stroke="#000000" stroke-width="2.2" stroke-dasharray="8 5" points="70.00,85.00 115.71,85.00 161.43,85.00 207.14,85.00 252.86,85.00 298.57,85.00 344.29,85.00 390.00,85.00"/>
<polyline fill="none" stroke="#D55E00" stroke-width="2.2" stroke-dasharray="3 4" points="70.00,295.00 115.71,295.00 161.43,295.00 207.14,295.00 252.86,295.00 298.57,295.00 344.29,295.00 390.00,295.00"/>
<polyline fill="none" stroke="#009E73" stroke-width="2.2" stroke-dasharray="10 4 2 4" points="70.00,115.00 115.71,115.00 161.43,115.00 207.14,115.00 252.86,85.00 298.57,85.00 344.29,85.00 390.00,115.00"/>
<line x1="78.00" y1="73.00" x2="96.00" y2="73.00" stroke="#0072B2" stroke-width="2.4"/>
<text x="102.00" y="77.00" font-size="12" fill="#222">scaffold</text>
<line x1="78.00" y1="91.00" x2="96.00" y2="91.00" stroke="#000000" stroke-width="2.4" stroke-dasharray="8 5"/>
<text x="102.00" y="95.00" font-size="12" fill="#222">answer only</text>
<line x1="78.00" y1="109.00" x2="96.00" y2="109.00" stroke="#D55E00" stroke-width="2.4" stroke-dasharray="3 4"/>
<text x="102.00" y="113.00" font-size="12" fill="#222">abstain probe only</text>
<line x1="78.00" y1="127.00" x2="96.00" y2="127.00" stroke="#009E73" stroke-width="2.4" stroke-dasharray="10 4 2 4"/>
<text x="102.00" y="131.00" font-size="12" fill="#222">decompose root</text>
<line x1="440.00" y1="295.00" x2="760.00" y2="295.00" stroke="#dddddd" stroke-width="1"/>
<text x="428.00" y="299.00" text-anchor="end" font-size="12" fill="#333">0.00</text>
<line x1="440.00" y1="235.00" x2="760.00" y2="235.00" stroke="#dddddd" stroke-width="1"/>
<text x="428.00" y="239.00" text-anchor="end" font-size="12" fill="#333">0.25</text>
<line x1="440.00" y1="175.00" x2="760.00" y2="175.00" stroke="#dddddd" stroke-width="1"/>
<text x="428.00" y="179.00" text-anchor="end" font-size="12" fill="#333">0.50</text>
<line x1="440.00" y1="115.00" x2="760.00" y2="115.00" stroke="#dddddd" stroke-width="1"/>
<text x="428.00" y="119.00" text-anchor="end" font-size="12" fill="#333">0.75</text>
<line x1="440.00" y1="55.00" x2="760.00" y2="55.00" stroke="#dddddd" stroke-width="1"/>
<text x="428.00" y="59.00" text-anchor="end" font-size="12" fill="#333">1.00</text>
<line x1="440.00" y1="295.00" x2="440.00" y2="301.00" stroke="#333" stroke-width="1.2"/>
<text x="440.00" y="317.00" text-anchor="middle" font-size="12" fill="#333">0</text>
<line x1="485.71" y1="295.00" x2="485.71" y2="301.00" stroke="#333" stroke-width="1.2"/>
<text x="485.71" y="317.00" text-anchor="middle" font-size="12" fill="#333">5</text>
<line x1="531.43" y1="295.00" x2="531.43" y2="301.00" stroke="#333" stroke-width="1.2"/>
<text x="531.43" y="317.00" text-anchor="middle" font-size="12" fill="#333">10</text>
<line x1="577.14" y1="295.00" x2="577.14" y2="301.00" stroke="#333" stroke-width="1.2"/>
<text x="577.14" y="317.00" text-anchor="middle" font-size="12" fill="#333">15</text>
<line x1="622.86" y1="295.00" x2="622.86" y2="301.00" stroke="#333" stroke-width="1.2"/>
<text x="622.86" y="317.00" text-anchor="middle" font-size="12" fill="#333">20</text>
<line x1="668.57" y1="295.00" x2="668.57" y2="301.00" stroke="#333" stroke-width="1.2"/>
<text x="668.57" y="317.00" text-anchor="middle" font-size="12" fill="#333">25</text>
<line x1="714.29" y1="295.00" x2="714.29" y2="301.00" stroke="#333" stroke-width="1.2"/>
<text x="714.29" y="317.00" text-anchor="middle" font-size="12" fill="#333">30</text>
<line x1="760.00" y1="295.00" x2="760.00" y2="301.00" stroke="#333" stroke-width="1.2"/>
<text x="760.00" y="317.00" text-anchor="middle" font-size="12" fill="#333">35</text>
<line x1="440.00" y1="295.00" x2="760.00" y2="295.00" stroke="#333" stroke-width="1.5"/>
<line x1="440.00" y1="55.00" x2="440.00" y2="295.00" stroke="#333" stroke-width="1.5"/>
<text x="600.00" y="37.00" text-anchor="middle" font-size="16" font-weight="bold" fill="#111">B. Three-digit products</text>
<text x="600.00" y="341.00" text-anchor="middle" font-size="14" fill="#111">Decomposition tax lambda</text>
<text x="392.00" y="175.00" text-anchor="middle" font-size="14" fill="#111" transform="rotate(-90 392.00,175.00)">Accuracy</text>
<polyline fill="none" stroke="#0072B2" stroke-width="2.4" points="440.00,145.00 485.71,145.00 531.43,145.00 577.14,145.00 622.86,145.00 668.57,205.00 714.29,295.00 760.00,295.00"/>
<circle cx="440.00" cy="145.00" r="3.4" fill="#0072B2"/>
<circle cx="485.71" cy="145.00" r="3.4" fill="#0072B2"/>
<circle cx="531.43" cy="145.00" r="3.4" fill="#0072B2"/>
<circle cx="577.14" cy="145.00" r="3.4" fill="#0072B2"/>
<circle cx="622.86" cy="145.00" r="3.4" fill="#0072B2"/>
<circle cx="668.57" cy="205.00" r="3.4" fill="#0072B2"/>
<circle cx="714.29" cy="295.00" r="3.4" fill="#0072B2"/>
<circle cx="760.00" cy="295.00" r="3.4" fill="#0072B2"/>
<polyline fill="none" stroke="#000000" stroke-width="2.2" stroke-dasharray="8 5" points="440.00,295.00 485.71,295.00 531.43,295.00 577.14,295.00 622.86,295.00 668.57,295.00 714.29,295.00 760.00,295.00"/>
<polyline fill="none" stroke="#D55E00" stroke-width="2.2" stroke-dasharray="3 4" points="440.00,295.00 485.71,295.00 531.43,295.00 577.14,295.00 622.86,295.00 668.57,295.00 714.29,295.00 760.00,295.00"/>
<polyline fill="none" stroke="#009E73" stroke-width="2.2" stroke-dasharray="10 4 2 4" points="440.00,145.00 485.71,145.00 531.43,145.00 577.14,145.00 622.86,145.00 668.57,205.00 714.29,235.00 760.00,235.00"/>
<line x1="810.00" y1="295.00" x2="1130.00" y2="295.00" stroke="#dddddd" stroke-width="1"/>
<text x="798.00" y="299.00" text-anchor="end" font-size="12" fill="#333">0.00</text>
<line x1="810.00" y1="235.00" x2="1130.00" y2="235.00" stroke="#dddddd" stroke-width="1"/>
<text x="798.00" y="239.00" text-anchor="end" font-size="12" fill="#333">0.25</text>
<line x1="810.00" y1="175.00" x2="1130.00" y2="175.00" stroke="#dddddd" stroke-width="1"/>
<text x="798.00" y="179.00" text-anchor="end" font-size="12" fill="#333">0.50</text>
<line x1="810.00" y1="115.00" x2="1130.00" y2="115.00" stroke="#dddddd" stroke-width="1"/>
<text x="798.00" y="119.00" text-anchor="end" font-size="12" fill="#333">0.75</text>
<line x1="810.00" y1="55.00" x2="1130.00" y2="55.00" stroke="#dddddd" stroke-width="1"/>
<text x="798.00" y="59.00" text-anchor="end" font-size="12" fill="#333">1.00</text>
<line x1="810.00" y1="295.00" x2="810.00" y2="301.00" stroke="#333" stroke-width="1.2"/>
<text x="810.00" y="317.00" text-anchor="middle" font-size="12" fill="#333">0</text>
<line x1="855.71" y1="295.00" x2="855.71" y2="301.00" stroke="#333" stroke-width="1.2"/>
<text x="855.71" y="317.00" text-anchor="middle" font-size="12" fill="#333">5</text>
<line x1="901.43" y1="295.00" x2="901.43" y2="301.00" stroke="#333" stroke-width="1.2"/>
<text x="901.43" y="317.00" text-anchor="middle" font-size="12" fill="#333">10</text>
<line x1="947.14" y1="295.00" x2="947.14" y2="301.00" stroke="#333" stroke-width="1.2"/>
<text x="947.14" y="317.00" text-anchor="middle" font-size="12" fill="#333">15</text>
<line x1="992.86" y1="295.00" x2="992.86" y2="301.00" stroke="#333" stroke-width="1.2"/>
<text x="992.86" y="317.00" text-anchor="middle" font-size="12" fill="#333">20</text>
<line x1="1038.57" y1="295.00" x2="1038.57" y2="301.00" stroke="#333" stroke-width="1.2"/>
<text x="1038.57" y="317.00" text-anchor="middle" font-size="12" fill="#333">25</text>
<line x1="1084.29" y1="295.00" x2="1084.29" y2="301.00" stroke="#333" stroke-width="1.2"/>
<text x="1084.29" y="317.00" text-anchor="middle" font-size="12" fill="#333">30</text>
<line x1="1130.00" y1="295.00" x2="1130.00" y2="301.00" stroke="#333" stroke-width="1.2"/>
<text x="1130.00" y="317.00" text-anchor="middle" font-size="12" fill="#333">35</text>
<line x1="810.00" y1="295.00" x2="1130.00" y2="295.00" stroke="#333" stroke-width="1.5"/>
<line x1="810.00" y1="55.00" x2="810.00" y2="295.00" stroke="#333" stroke-width="1.5"/>
<text x="970.00" y="37.00" text-anchor="middle" font-size="16" font-weight="bold" fill="#111">C. Three-digit control law</text>
<text x="970.00" y="341.00" text-anchor="middle" font-size="14" fill="#111">Decomposition tax lambda</text>
<text x="762.00" y="175.00" text-anchor="middle" font-size="14" fill="#111" transform="rotate(-90 762.00,175.00)">Probability / mass</text>
<polyline fill="none" stroke="#000000" stroke-width="2.2" stroke-dasharray="8 5" points="810.00,295.00 855.71,295.00 901.43,295.00 947.14,295.00 992.86,294.99 1038.57,232.65 1084.29,76.89 1130.00,75.07"/>
<polyline fill="none" stroke="#D55E00" stroke-width="2.2" stroke-dasharray="3 4" points="810.00,295.00 855.71,295.00 901.43,295.00 947.14,295.00 992.86,295.00 1038.57,289.32 1084.29,275.11 1130.00,274.94"/>
<polyline fill="none" stroke="#0072B2" stroke-width="2.4" points="810.00,55.00 855.71,55.00 901.43,55.00 947.14,55.00 992.86,55.01 1038.57,123.02 1084.29,293.01 1130.00,294.99"/>
<circle cx="810.00" cy="55.00" r="3.4" fill="#0072B2"/>
<circle cx="855.71" cy="55.00" r="3.4" fill="#0072B2"/>
<circle cx="901.43" cy="55.00" r="3.4" fill="#0072B2"/>
<circle cx="947.14" cy="55.00" r="3.4" fill="#0072B2"/>
<circle cx="992.86" cy="55.01" r="3.4" fill="#0072B2"/>
<circle cx="1038.57" cy="123.02" r="3.4" fill="#0072B2"/>
<circle cx="1084.29" cy="293.01" r="3.4" fill="#0072B2"/>
<circle cx="1130.00" cy="294.99" r="3.4" fill="#0072B2"/>
<polyline fill="none" stroke="#CC79A7" stroke-width="2.2" stroke-dasharray="10 4 2 4" points="810.00,145.00 855.71,145.00 901.43,145.00 947.14,145.00 992.86,145.01 1038.57,211.79 1084.29,294.52 1130.00,295.00"/>
<circle cx="810.00" cy="145.00" r="3.4" fill="#CC79A7"/>
<circle cx="855.71" cy="145.00" r="3.4" fill="#CC79A7"/>
<circle cx="901.43" cy="145.00" r="3.4" fill="#CC79A7"/>
<circle cx="947.14" cy="145.00" r="3.4" fill="#CC79A7"/>
<circle cx="992.86" cy="145.01" r="3.4" fill="#CC79A7"/>
<circle cx="1038.57" cy="211.79" r="3.4" fill="#CC79A7"/>
<circle cx="1084.29" cy="294.52" r="3.4" fill="#CC79A7"/>
<circle cx="1130.00" cy="295.00" r="3.4" fill="#CC79A7"/>
<line x1="818.00" y1="73.00" x2="836.00" y2="73.00" stroke="#000000" stroke-width="2.4" stroke-dasharray="8 5"/>
<text x="842.00" y="77.00" font-size="12" fill="#222">pi_ans</text>
<line x1="818.00" y1="91.00" x2="836.00" y2="91.00" stroke="#D55E00" stroke-width="2.4" stroke-dasharray="3 4"/>
<text x="842.00" y="95.00" font-size="12" fill="#222">pi_abs</text>
<line x1="818.00" y1="109.00" x2="836.00" y2="109.00" stroke="#0072B2" stroke-width="2.4"/>
<text x="842.00" y="113.00" font-size="12" fill="#222">pi_dec</text>
<line x1="818.00" y1="127.00" x2="836.00" y2="127.00" stroke="#CC79A7" stroke-width="2.4" stroke-dasharray="10 4 2 4"/>
<text x="842.00" y="131.00" font-size="12" fill="#222">gamma</text>
</svg>