<svg xmlns="http://www.w3.org/2000/svg" viewBox="0 0 1200 600" width="100%" height="100%">
  <defs>
    <!-- Hatch pattern for invalid weight region (w < 0) -->
    <pattern id="hatch" width="6" height="6" patternUnits="userSpaceOnUse">
      <line x1="0" y1="6" x2="6" y2="0" stroke="#d6d3d1" stroke-width="0.75" />
    </pattern>
    
    <!-- Shared arrowheads for unconstrained steps and axes -->
    <marker id="arrow-gray" viewBox="0 0 10 10" refX="2" refY="5" markerWidth="6" markerHeight="6" orient="auto-start-reverse">
      <polygon points="10,0 0,5 10,10" fill="#78716c" />
    </marker>
    <marker id="arrow-orange" viewBox="0 0 10 10" refX="2" refY="5" markerWidth="6" markerHeight="6" orient="auto-start-reverse">
      <polygon points="10,0 0,5 10,10" fill="#c2410c" />
    </marker>
    <marker id="arrow-axis" viewBox="0 0 10 10" refX="8" refY="5" markerWidth="5" markerHeight="5" orient="auto">
      <polygon points="0,0 10,5 0,10" fill="#a8a29e" />
    </marker>
  </defs>

  <!-- Background -->
  <rect width="100%" height="100%" fill="#none" />

  <!-- Main Title -->
  <text x="600" y="50" text-anchor="middle" font-family="system-ui, -apple-system, sans-serif" font-size="16" font-weight="600" letter-spacing="1.5" fill="#292929">
    EFFECT OF MIRROR MAPS ON PORTFOLIO REGULARIZATION
  </text>
  <text x="600" y="75" text-anchor="middle" font-family="system-ui, -apple-system, sans-serif" font-size="13" fill="#78716c">
    Projecting Unconstrained Gradients onto the Probability Simplex in Online Convex Optimization
  </text>

  <!-- PANEL 1: EUCLIDEAN MAP -->
  <g transform="translate(60, 120)">
    <!-- Header -->
    <text x="160" y="10" text-anchor="middle" font-family="system-ui, -apple-system, sans-serif" font-size="12" font-weight="600" letter-spacing="1" fill="#292929">Euclidean map</text>
    <text x="160" y="35" text-anchor="middle" font-family="Georgia, serif" font-size="16" fill="#292929" font-style="italic">
      Φ(w) = ½ ‖w‖²
    </text>

    <!-- Out-of-bounds region -->
    <rect x="0" y="60" width="50" height="260" fill="url(#hatch)" />
    
    <!-- Axes and Boundary -->
    <line x1="50" y1="60" x2="50" y2="320" stroke="#292929" stroke-width="1.5" />
    <text x="40" y="165" transform="rotate(-90 40 190)" text-anchor="middle" font-family="system-ui, -apple-system, sans-serif" font-size="12" fill="#78716c">boundary (w = 0)</text>
    
    <line x1="0" y1="320" x2="310" y2="320" stroke="#a8a29e" stroke-width="1" marker-end="url(#arrow-axis)" />
    <text x="290" y="340" text-anchor="middle" font-family="system-ui, -apple-system, sans-serif" font-size="11" fill="#78716c">w<tspan baseline-shift="sub" font-size="9">i</tspan></text>

    <!-- Contours (Concentric Circles) -->
    <g stroke="#a8a29e" stroke-width="1" fill="none" opacity="0.4">
      <circle cx="200" cy="200" r="35" />
      <circle cx="200" cy="200" r="70" />
      <circle cx="200" cy="200" r="105" />
    </g>

    <!-- Update Vectors -->
    <line x1="200" y1="193" x2="16" y2="193" stroke="#78716c" stroke-width="1.5" stroke-dasharray="4 4" marker-start="url(#arrow-gray)" />
    <text x="105" y="185" text-anchor="middle" font-family="system-ui, -apple-system, sans-serif" font-size="11" fill="#78716c" font-style="italic">unconstrained step (-η g<tspan baseline-shift="sub" font-size="9">t</tspan>)</text>
    
    <line x1="200" y1="207" x2="56" y2="207" stroke="#c2410c" stroke-width="2" marker-start="url(#arrow-orange)" />

    <!-- Points -->
    <circle cx="200" cy="200" r="4.5" fill="#292929" />
    <text x="210" y="195" font-family="Georgia, serif" font-size="14" font-style="italic" fill="#292929">w<tspan baseline-shift="sub" font-size="10">t</tspan></text>
    
    <circle cx="50" cy="207" r="5.5" fill="#c2410c" />
    <text x="56" y="225" font-family="Georgia, serif" font-size="14" font-style="italic" fill="#c2410c">w<tspan baseline-shift="sub" font-size="10">t+1</tspan></text>

    <!-- Panel Summary -->
    <text x="160" y="365" text-anchor="middle" font-family="system-ui, -apple-system, sans-serif" font-size="13" font-weight="600" fill="#292929">Sparse Projection</text>
    <text x="160" y="385" text-anchor="middle" font-family="system-ui, -apple-system, sans-serif" font-size="12" fill="#78716c">Weights easily hit zero (additive update)</text>
  </g>

  <!-- PANEL 2: ENTROPIC MAP -->
  <g transform="translate(440, 120)">
    <!-- Header -->
    <text x="160" y="10" text-anchor="middle" font-family="system-ui, -apple-system, sans-serif" font-size="12" font-weight="600" letter-spacing="1" fill="#292929">Entropic map</text>
    <text x="160" y="35" text-anchor="middle" font-family="Georgia, serif" font-size="16" fill="#292929" font-style="italic">
      Φ(w) = Σ w<tspan baseline-shift="sub" font-size="12">i</tspan> log w<tspan baseline-shift="sub" font-size="12">i</tspan>
    </text>

    <!-- Out-of-bounds region -->
    <rect x="0" y="60" width="50" height="260" fill="url(#hatch)" />
    
    <!-- Axes and Boundary -->
    <line x1="50" y1="60" x2="50" y2="320" stroke="#292929" stroke-width="1.5" />
    <text x="40" y="165" transform="rotate(-90 40 190)" text-anchor="middle" font-family="system-ui, -apple-system, sans-serif" font-size="12" fill="#78716c">boundary (w = 0)</text>
    
    <line x1="0" y1="320" x2="310" y2="320" stroke="#a8a29e" stroke-width="1" marker-end="url(#arrow-axis)" />
    <text x="290" y="340" text-anchor="middle" font-family="system-ui, -apple-system, sans-serif" font-size="11" fill="#78716c">w<tspan baseline-shift="sub" font-size="9">i</tspan></text>

    <!-- Contours (KL Divergence, squashing towards boundary) -->
    <g stroke="#a8a29e" stroke-width="1" fill="none" opacity="0.4">
      <path d="M 170 200 A 30 30 0 0 1 200 170 A 30 30 0 0 1 230 200 A 30 30 0 0 1 200 230 A 30 30 0 0 1 170 200 Z" />
      <path d="M 140 200 A 60 65 0 0 1 200 135 A 65 65 0 0 1 265 200 A 65 65 0 0 1 200 265 A 60 65 0 0 1 140 200 Z" />
      <path d="M 110 200 A 90 105 0 0 1 200 95 A 105 105 0 0 1 305 200 A 105 105 0 0 1 200 305 A 90 105 0 0 1 110 200 Z" />
      <!-- <path d="M 80 200 A 120 150 0 0 1 200 50 A 150 150 0 0 1 350 200 A 150 150 0 0 1 200 350 A 120 150 0 0 1 80 200 Z" /> -->
    </g>

    <!-- Update Vectors -->
    <line x1="200" y1="193" x2="16" y2="193" stroke="#78716c" stroke-width="1.5" stroke-dasharray="4 4" marker-start="url(#arrow-gray)" />
    <text x="105" y="185" text-anchor="middle" font-family="system-ui, -apple-system, sans-serif" font-size="11" fill="#78716c" font-style="italic">unconstrained step (-η g<tspan baseline-shift="sub" font-size="9">t</tspan>)</text>
    
    <line x1="200" y1="207" x2="76" y2="207" stroke="#c2410c" stroke-width="2" marker-start="url(#arrow-orange)" />

    <!-- Points -->
    <circle cx="200" cy="200" r="4.5" fill="#292929" />
    <text x="210" y="195" font-family="Georgia, serif" font-size="14" font-style="italic" fill="#292929">w<tspan baseline-shift="sub" font-size="10">t</tspan></text>
    
    <circle cx="70" cy="207" r="5.5" fill="#c2410c" />
    <text x="76" y="225" font-family="Georgia, serif" font-size="14" font-style="italic" fill="#c2410c">w<tspan baseline-shift="sub" font-size="10">t+1</tspan></text>

    <!-- Panel Summary -->
    <text x="160" y="365" text-anchor="middle" font-family="system-ui, -apple-system, sans-serif" font-size="13" font-weight="600" fill="#292929">Asymptotic Approach</text>
    <text x="160" y="385" text-anchor="middle" font-family="system-ui, -apple-system, sans-serif" font-size="12" fill="#78716c">Strictly positive weights (multiplicative)</text>
  </g>

  <!-- PANEL 3: BURG MAP -->
  <g transform="translate(820, 120)">
    <!-- Header -->
    <text x="160" y="10" text-anchor="middle" font-family="system-ui, -apple-system, sans-serif" font-size="12" font-weight="600" letter-spacing="1" fill="#292929">Burg map</text>
    <text x="160" y="35" text-anchor="middle" font-family="Georgia, serif" font-size="16" fill="#292929" font-style="italic">
      Φ(w) = −Σ log w<tspan baseline-shift="sub" font-size="12">i</tspan>
    </text>

    <!-- Out-of-bounds region -->
    <rect x="0" y="60" width="50" height="260" fill="url(#hatch)" />
    
    <!-- Axes and Boundary -->
    <line x1="50" y1="60" x2="50" y2="320" stroke="#292929" stroke-width="1.5" />
    <text x="40" y="165" transform="rotate(-90 40 190)" text-anchor="middle" font-family="system-ui, -apple-system, sans-serif" font-size="12" fill="#78716c">boundary (w = 0)</text>
    
    <line x1="0" y1="320" x2="310" y2="320" stroke="#a8a29e" stroke-width="1" marker-end="url(#arrow-axis)" />
    <text x="290" y="340" text-anchor="middle" font-family="system-ui, -apple-system, sans-serif" font-size="11" fill="#78716c">w<tspan baseline-shift="sub" font-size="9">i</tspan></text>

    <!-- Contours (Itakura-Saito distance, massive log-barrier far from 0) -->
    <g stroke="#a8a29e" stroke-width="1" fill="none" opacity="0.4">
      <path d="M 175 200 A 25 25 0 0 1 200 175 A 25 25 0 0 1 225 200 A 25 25 0 0 1 200 225 A 25 25 0 0 1 175 200 Z" />
      <path d="M 155 200 A 45 55 0 0 1 200 145 A 55 55 0 0 1 255 200 A 55 55 0 0 1 200 255 A 45 55 0 0 1 155 200 Z" />
      <path d="M 145 200 A 55 90 0 0 1 200 110 A 90 90 0 0 1 290 200 A 90 90 0 0 1 200 290 A 55 90 0 0 1 145 200 Z" />
      <!-- <path d="M 138 200 A 62 135 0 0 1 200 65 A 135 135 0 0 1 335 200 A 135 135 0 0 1 200 335 A 62 135 0 0 1 138 200 Z" /> -->
    </g>

    <!-- Update Vectors -->
    <line x1="200" y1="193" x2="16" y2="193" stroke="#78716c" stroke-width="1.5" stroke-dasharray="4 4" marker-start="url(#arrow-gray)" />
    <text x="105" y="185" text-anchor="middle" font-family="system-ui, -apple-system, sans-serif" font-size="11" fill="#78716c" font-style="italic">unconstrained step (-η g<tspan baseline-shift="sub" font-size="9">t</tspan>)</text>
    
    <line x1="200" y1="207" x2="136" y2="207" stroke="#c2410c" stroke-width="2" marker-start="url(#arrow-orange)" />

    <!-- Points -->
    <circle cx="200" cy="200" r="4.5" fill="#292929" />
    <text x="210" y="195" font-family="Georgia, serif" font-size="14" font-style="italic" fill="#292929">w<tspan baseline-shift="sub" font-size="10">t</tspan></text>
    
    <circle cx="130" cy="207" r="5.5" fill="#c2410c" />
    <text x="136" y="225" font-family="Georgia, serif" font-size="14" font-style="italic" fill="#c2410c">w<tspan baseline-shift="sub" font-size="10">t+1</tspan></text>

    <!-- Panel Summary -->
    <text x="160" y="365" text-anchor="middle" font-family="system-ui, -apple-system, sans-serif" font-size="13" font-weight="600" fill="#292929">Log-Barrier Repulsion</text>
    <text x="160" y="385" text-anchor="middle" font-family="system-ui, -apple-system, sans-serif" font-size="12" fill="#78716c">Strongly prevents any weight from collapsing</text>
  </g>

</svg>